<?xml version="1.0" encoding="utf-8"?>
<!-- Generator: Adobe Illustrator 27.0.1, SVG Export Plug-In . SVG Version: 6.00 Build 0)  -->
<svg version="1.1" id="Layer_1" xmlns="http://www.w3.org/2000/svg" xmlns:xlink="http://www.w3.org/1999/xlink" x="0px" y="0px"
	 viewBox="0 0 723.4 209.3" style="enable-background:new 0 0 723.4 209.3;" xml:space="preserve">
<style type="text/css">
	.st0{fill:#002675;}
</style>
<g>
	<g>
		<g>
			<g>
				<path class="st0" d="M66.4,114.5H37.1c-8.6,0-12.8-1-12.8-8.4c0-7.9,4.5-9.9,14.5-9.9h27.6V114.5z M90.5,132.3V76.7
					c0-21.9-12.3-33.2-36.6-33.2h-48v18.4H45c14.8,0,21.2,3,21.2,14.3v2.2H35.4C10.6,78.4,0,86.2,0,106.7c0,16.3,9.8,25.6,27.5,25.6
					H90.5"/>
				<path class="st0" d="M197.1,68.7c0-16.3-9.8-25.6-27.5-25.6h-63v89.3h63c17.7,0,27.5-9.3,27.5-25.6c0-8.3-5.5-14.6-9.2-19
					C191.7,83.2,197.1,77,197.1,68.7L197.1,68.7z M130.8,60.9h29.3c8.6,0,12.8,1,12.8,8.4c0,5.3-2.1,8-6.5,9.2
					c-1.5-0.1-3-0.1-4.6-0.1h-30.8v-2.2l-0.2,0V60.9z M160.1,114.5h-29.3V99.2h0.2V97h30.8c1.6,0,3.2,0,4.7-0.1
					c4.4,1.2,6.5,3.8,6.5,9.2C172.9,113.4,168.7,114.5,160.1,114.5"/>
				<path class="st0" d="M265.7,80.8V69.3c0-7.9-2.7-8.8-10.3-8.8h-18.8v71.8h-23.4V43.5h50c18.5,0,24.9,5.9,24.9,22.4v14.8H265.7"
					/>
				<path class="st0" d="M364.2,114.5h-29.3c-8.6,0-12.8-1-12.8-8.4c0-7.9,4.5-9.9,14.5-9.9h27.6V114.5z M388.3,132.3V76.7
					c0-21.9-12.3-33.2-36.6-33.2h-48v18.4h39.1c14.8,0,21.2,3,21.2,14.3v2.2h-30.8c-24.8,0-35.4,7.8-35.4,28.3
					c0,16.3,9.8,25.6,27.5,25.6H388.3"/>
				<path class="st0" d="M466.7,132.3V78.9c0-12.3-2.2-15.8-15.5-15.8h-18.9v69.3h-23.4V43.5H453c26.3,0,37.1,8.9,37.1,32.5v56.3
					H466.7"/>
				<polyline class="st0" points="554.6,64.3 554.6,132.3 528.3,132.3 528.3,64.3 499.7,64.3 499.7,43.3 583.3,43.3 583.3,64.3 
					554.6,64.3 				"/>
				<rect x="595.7" y="43.5" class="st0" width="24.6" height="88.8"/>
				<polyline class="st0" points="690.6,88.5 722.9,132.3 695.6,132.3 676.9,106.5 658.1,132.3 630.8,132.3 663.6,88 630.8,43.5 
					657.9,43.5 676.9,70.3 696.5,43.5 723.4,43.5 690.6,88.5 				"/>
				<path class="st0" d="M621.3,13.4C621.3,5.4,616,0,607.6,0c-8.4,0-13.8,5.4-13.8,13.4c0,8,5.3,13.4,13.8,13.4
					C616.1,26.8,621.3,21.4,621.3,13.4"/>
			</g>
		</g>
	</g>
	<g>
		<g>
			<path class="st0" d="M349.8,200.2c-4.3,0-8.7-0.3-8.7-6.8v-13.1H336v-3.4h5.1v-4.7h4.3v4.7h11v3.4h-11v12.7
				c0,2.8,1.4,3.4,4.4,3.4c2.3,0,5.2-0.5,6.6-1l0.6,3.4C355.1,199.5,352.2,200.2,349.8,200.2z"/>
			<path class="st0" d="M377.4,199.8v-14.1c0-3.7-0.4-5.6-3.9-5.6c-2.4,0-4.9,1.7-5.8,2.4v17.3h-4.4v-31.7h4.4v11.3
				c1.3-1.2,3.5-3.1,7.1-3.1c6.9,0,6.9,4.5,6.9,8.8v14.7H377.4z"/>
			<path class="st0" d="M389.6,199.8v-3.7h7.8v-15.9h-7.1v-3.4h11.5v19.3h7.6v3.7H389.6z M399.5,173.2l-3.4-3.4l3.4-3.4l3.4,3.4
				L399.5,173.2z"/>
			<path class="st0" d="M429.4,199.8v-14.1c0-3.7-0.4-5.6-3.9-5.6c-2.6,0-4.9,1.7-5.8,2.4v17.3h-4.4v-22.9h4.4v2.5
				c1.4-1.2,3.5-3.1,7.1-3.1c6.9,0,6.9,4.5,6.9,8.8v14.7H429.4z"/>
			<path class="st0" d="M442.1,199.8v-31.7h4.4v31.7H442.1z M455.7,199.8l-8.8-12.3l9-10.6h4.9l-9.2,10.4l9.4,12.5H455.7z"/>
			<path class="st0" d="M467.7,199.8v-3.7h7.8v-15.9h-7.1v-3.4h11.5v19.3h7.6v3.7H467.7z M477.6,173.2l-3.4-3.4l3.4-3.4l3.4,3.4
				L477.6,173.2z"/>
			<path class="st0" d="M507.5,199.8v-14.1c0-3.7-0.4-5.6-3.9-5.6c-2.6,0-4.9,1.7-5.8,2.4v17.3h-4.4v-22.9h4.4v2.5
				c1.4-1.2,3.5-3.1,7.1-3.1c6.9,0,6.9,4.5,6.9,8.8v14.7H507.5z"/>
			<path class="st0" d="M528.1,209.3c-3.4,0-6.3-0.6-7.7-1l0.8-3.6c1.5,0.3,4.4,0.8,6.1,0.8c3.7,0,6.1-0.6,6.1-5.3v-1.9
				c-1,1.1-3,1.8-5,1.8c-4.6,0-9.6-1.4-9.6-11.7c0-8.1,4.6-12,10.9-12c2.7,0,5,0.4,8,0.9v23.6C537.8,206.8,533.5,209.3,528.1,209.3z
				 M533.4,180.4c-0.8-0.2-1.9-0.4-3.7-0.4c-5.1,0-6.5,3.7-6.5,8.5c0,6,1.8,8.1,6,8.1c1.9,0,3.4-1,4.2-1.6V180.4z"/>
			<path class="st0" d="M590.4,200c-2.3,0.2-5.2-0.4-5.7-2.7c-0.9,0.9-3.1,2.9-6.9,2.9c-4.3,0-6.8-2.3-6.8-6.5
				c0-5.7,5.1-6.8,9.1-6.8l4.3-0.1v-2.8c0-3.1-1.6-3.7-5.4-3.7c-2.1,0-4.2,0.6-5.5,1l-0.9-3.4c1.1-0.4,3.9-1.3,7.3-1.3
				c4.7,0,8.6,1,8.6,6.3v12.1c0,1.4,1,1.7,2.1,1.8L590.4,200z M584.4,189.4l-4.2,0.2c-3.8,0.2-4.9,1.8-4.9,3.6
				c0,2.5,1.2,3.4,3.4,3.4c2.4,0,5-1.6,5.7-2V189.4z"/>
			<path class="st0" d="M611.6,199.8v-14.1c0-3.7-0.4-5.6-3.9-5.6c-2.4,0-4.9,1.7-5.8,2.4v17.3h-4.4v-31.7h4.4v11.3
				c1.3-1.2,3.5-3.1,7.1-3.1c6.9,0,6.9,4.5,6.9,8.8v14.7H611.6z"/>
			<path class="st0" d="M627.7,189.7c0.2,6,3.4,6.7,7.3,6.7c1.6,0,4.7-0.3,6.2-0.7l0.6,3.4c-1.6,0.5-4.1,1-7.6,1
				c-6.7,0-11-2.6-11-11.5c0-9.3,4.3-12.4,10.4-12.4c6.1,0,8.5,4.4,8.5,11.8v1.6H627.7z M633.1,179.7c-2.9,0-5,2.1-5.4,6.8h9.9
				C637.7,182.1,636.1,179.7,633.1,179.7z"/>
			<path class="st0" d="M668.5,200c-2.3,0.2-5.2-0.4-5.7-2.7c-0.9,0.9-3.1,2.9-6.9,2.9c-4.3,0-6.8-2.3-6.8-6.5
				c0-5.7,5.1-6.8,9.1-6.8l4.3-0.1v-2.8c0-3.1-1.6-3.7-5.4-3.7c-2.1,0-4.2,0.6-5.5,1l-0.9-3.4c1.1-0.4,3.9-1.3,7.3-1.3
				c4.7,0,8.6,1,8.6,6.3v12.1c0,1.4,1,1.7,2.1,1.8L668.5,200z M662.4,189.4l-4.2,0.2c-3.8,0.2-4.9,1.8-4.9,3.6
				c0,2.5,1.2,3.4,3.4,3.4c2.4,0,5-1.6,5.7-2V189.4z"/>
			<path class="st0" d="M689.6,199.8v-2.2c-1.1,1.2-3.4,2.6-5.7,2.6c-4,0-8.9-1.8-8.9-11.8c0-8,4.4-12,10.6-12
				c1.8,0,2.6,0.1,3.9,0.5v-8.6h4.4v31.7H689.6z M689.6,180.3c-0.9-0.3-2.1-0.6-3.9-0.6c-4.8,0-6.2,4.2-6.2,8.7c0,5.8,2,8,5.2,8
				c2,0,3.9-1.3,4.9-2V180.3z"/>
			<path class="st0" d="M698.2,207.2v-3.7h25.2v3.7H698.2z"/>
		</g>
	</g>
</g>
</svg>
